<svg xmlns="http://www.w3.org/2000/svg" version="1.1" xmlns:xlink="http://www.w3.org/1999/xlink" xmlns:svgjs="http://svgjs.com/svgjs" width="1440" height="560" preserveAspectRatio="none" viewBox="0 0 1440 560"><g mask="url(&quot;#SvgjsMask1014&quot;)" fill="none"><rect width="1440" height="560" x="0" y="0" fill="url(#SvgjsLinearGradient1015)"></rect><path d="M1440 0L1301.58 0L1440 171.23z" fill="rgba(255, 255, 255, .1)"></path><path d="M1301.58 0L1440 171.23L1440 308.44L1025.69 0z" fill="rgba(255, 255, 255, .075)"></path><path d="M1025.69 0L1440 308.44L1440 359.49L813.08 0z" fill="rgba(255, 255, 255, .05)"></path><path d="M813.08 0L1440 359.49L1440 444.04L787.12 0z" fill="rgba(255, 255, 255, .025)"></path><path d="M0 560L574.04 560L0 536.22z" fill="rgba(0, 0, 0, .1)"></path><path d="M0 536.22L574.04 560L862.45 560L0 508.32000000000005z" fill="rgba(0, 0, 0, .075)"></path><path d="M0 508.32L862.45 560L1043.96 560L0 293.68z" fill="rgba(0, 0, 0, .05)"></path><path d="M0 293.68L1043.96 560L1283.3400000000001 560L0 105.29000000000002z" fill="rgba(0, 0, 0, .025)"></path></g><defs><mask id="SvgjsMask1014"><rect width="1440" height="560" fill="#ffffff"></rect></mask><linearGradient x1="50%" y1="100%" x2="50%" y2="0%" gradientUnits="userSpaceOnUse" id="SvgjsLinearGradient1015"><stop stop-color="#0e2a47" offset="0"></stop><stop stop-color="#00459e" offset="1"></stop></linearGradient></defs></svg>